# xmcd
#
# Track frame offsets: 
#        150
#        14267
#        29716
#        46845
#        72066
#        81371
#        103081
#        133836
#        156675
#        175355
#
# Disc length: 2621 seconds
#
# Revision: 2
# Processed by: cddbd v1.5.2PL0 Copyright (c) Steve Scherf et al.
# Submitted via: ExactAudioCopy v0.99pb4
#
DISCID=8c0a3b0a
DTITLE=Peter Rowan and Tony Rice - You Were There For Me
DYEAR=2004
DGENRE=Acoustic Guitar
TTITLE0=You Were There For Me
TTITLE1=Tin Roof Shack
TTITLE2=Shirt Off My Back
TTITLE3=Miss Liberty (Lay My Lonesome Down)
TTITLE4=Cowboys and Indians
TTITLE5=Ahmed the Beggar Boy
TTITLE6=Angel  Island
TTITLE7=Ain't That Just Like You
TTITLE8=Come Back to Old Sante Fe
TTITLE9=Wild Mustang
EXTD=
EXTT0=
EXTT1=
EXTT2=
EXTT3=
EXTT4=
EXTT5=
EXTT6=
EXTT7=
EXTT8=
EXTT9=
PLAYORDER=
